#tb 0: 1/1000
#tb 1: 1/44100
0,          0,          0,        0,  3824640, 0xf8cf3d18
1,          0,          0,    16384,    32768, 0x6b41078a
1,      14288,      14288,    16384,    32768, 0x96f7bfa2
0,        499,        499,        0,  3824640, 0x29dc2af5
0,        624,        624,        0,  3824640, 0x0ef5287b
0,        625,        625,        0,  3824640, 0x84b5283d
0,        626,        626,        0,  3824640, 0xcde31cda
0,        627,        627,        0,  3824640, 0x61cf2454
0,        628,        628,        0,  3824640, 0xb8e32127
1,      30650,      30650,    14336,    28672, 0xfafb3922
0,        749,        749,        0,  3824640, 0xb2972f1f
0,        750,        750,        0,  3824640, 0x5f59333c
0,        751,        751,        0,  3824640, 0x8d3529ea
0,        752,        752,        0,  3824640, 0xceb4385f
0,        753,        753,        0,  3824640, 0xb93139f8
0,        754,        754,        0,  3824640, 0xfb802d6f
0,        874,        874,        0,  3824640, 0x94643ee6
0,        875,        875,        0,  3824640, 0x646c4e89
0,        876,        876,        0,  3824640, 0xa65d5e7a
0,        877,        877,        0,  3824640, 0xec2a6467
0,        878,        878,        0,  3824640, 0x755e642e
0,        879,        879,        0,  3824640, 0xcaff6412
0,        880,        880,        0,  3824640, 0x9abc6412
